<svg width="75" height="75" viewBox="0 0 75 75" fill="none" xmlns="http://www.w3.org/2000/svg">
<path d="M0 0H75V75H0V0Z" fill="#F0DB4F"/>
<path d="M68.8614 57.1127C68.3124 53.6907 66.081 50.8176 59.4721 48.1369C57.1765 47.0818 54.6171 46.3262 53.8543 44.5866C53.5834 43.5742 53.5477 43.0038 53.7188 42.3907C54.2107 40.4016 56.5848 39.7814 58.4669 40.3517C59.6789 40.7581 60.8267 41.6921 61.5182 43.1821C64.7549 41.0861 64.7478 41.1003 67.0078 39.6603C66.1808 38.377 65.7388 37.7852 65.1969 37.2363C63.2506 35.0619 60.5986 33.9426 56.3566 34.0281C55.6223 34.1208 54.8809 34.2205 54.1466 34.3133C52.0292 34.848 50.0116 35.9602 48.8281 37.4502C45.2777 41.4782 46.2901 48.5291 50.6104 51.4308C54.8666 54.6247 61.119 55.3519 61.9175 58.339C62.6946 61.9964 59.2298 63.1798 55.7863 62.7592C53.2483 62.2316 51.8367 60.9412 50.311 58.5957C47.5021 60.2212 47.5021 60.2212 44.6148 61.8823C45.2992 63.3795 46.0192 64.0567 47.1671 65.3543C52.5996 70.8652 66.195 70.5943 68.6333 62.253C68.7331 61.9678 69.389 60.0571 68.8614 57.1127ZM40.772 34.4701H33.7568C33.7568 40.53 33.7284 46.5471 33.7284 52.607C33.7284 56.464 33.928 60.0001 33.3006 61.0838C32.274 63.2153 29.6148 62.9516 28.4028 62.5381C27.1695 61.9321 26.5421 61.0694 25.8149 59.8504C25.6153 59.5011 25.4656 59.2301 25.4156 59.2087C23.5121 60.3708 21.6157 61.54 19.7122 62.7021C20.6604 64.6484 22.0577 66.3381 23.8471 67.4359C26.5206 69.04 30.1138 69.5319 33.871 68.6693C36.3163 67.9563 38.4265 66.4806 39.5315 64.2349C41.1285 61.2905 40.7863 57.7259 40.772 53.7834C40.8077 47.3527 40.772 40.9221 40.772 34.4701Z" fill="#323330"/>
</svg>
