<svg width="75" height="86" viewBox="0 0 75 86" fill="none" xmlns="http://www.w3.org/2000/svg">
<path d="M75 42.7378C75 37.7694 68.778 33.0609 59.2387 30.141C61.4401 20.4182 60.4617 12.6828 56.1506 10.2062C55.157 9.6253 53.9951 9.35013 52.7262 9.35013V12.7592C53.4295 12.7592 53.9951 12.8968 54.469 13.1567C56.5481 14.3491 57.4501 18.8895 56.7468 24.7293C56.5787 26.1663 56.3035 27.6797 55.9672 29.2238C52.9709 28.49 49.6993 27.9243 46.2597 27.5574C44.1959 24.7293 42.0556 22.161 39.9001 19.9137C44.8838 15.2816 49.5618 12.7439 52.7415 12.7439V9.33484C48.5375 9.33484 43.034 12.3312 37.4694 17.5289C31.9048 12.3617 26.4013 9.39599 22.1973 9.39599V12.8051C25.3618 12.8051 30.055 15.3275 35.0387 19.929C32.8985 22.1763 30.7583 24.7293 28.725 27.5574C25.2701 27.9243 21.9986 28.49 19.0022 29.239C18.6506 27.7103 18.3907 26.2274 18.2073 24.8057C17.4888 18.9659 18.3755 14.4255 20.4393 13.2178C20.8979 12.9427 21.4941 12.8204 22.1973 12.8204V9.41128C20.9132 9.41128 19.7513 9.68645 18.7424 10.2674C14.4466 12.7439 13.4835 20.4641 15.7002 30.1563C6.1914 33.0915 0 37.7847 0 42.7378C0 47.7062 6.22197 52.4147 15.7613 55.3346C13.5599 65.0574 14.5383 72.7929 18.8494 75.2694C19.8431 75.8503 21.0049 76.1255 22.289 76.1255C26.4931 76.1255 31.9965 73.1292 37.5611 67.9315C43.1258 73.0986 48.6292 76.0644 52.8333 76.0644C54.1174 76.0644 55.2793 75.7892 56.2882 75.2083C60.584 72.7317 61.5471 65.0116 59.3304 55.3193C68.8086 52.3995 75 47.6909 75 42.7378ZM55.0958 32.5411C54.5302 34.5132 53.8269 36.5464 53.032 38.5796C52.4052 37.3566 51.7479 36.1337 51.0294 34.9107C50.3261 33.6877 49.5771 32.4953 48.828 31.3334C50.9988 31.6544 53.0931 32.0519 55.0958 32.5411ZM48.0942 48.8222C46.9018 50.886 45.6788 52.8428 44.4099 54.662C42.1321 54.8607 39.8237 54.9677 37.5 54.9677C35.1916 54.9677 32.8832 54.8607 30.6207 54.6773C29.3518 52.8581 28.1135 50.9166 26.9211 48.8681C25.7593 46.8654 24.7044 44.8322 23.7413 42.7837C24.6892 40.7352 25.7593 38.6867 26.9058 36.684C28.0983 34.6202 29.3212 32.6634 30.5901 30.8442C32.8679 30.6455 35.1763 30.5385 37.5 30.5385C39.8084 30.5385 42.1168 30.6455 44.3793 30.8289C45.6482 32.6481 46.8865 34.5896 48.0789 36.6381C49.2407 38.6408 50.2956 40.674 51.2587 42.7225C50.2956 44.771 49.2407 46.8195 48.0942 48.8222ZM53.032 46.8348C53.8575 48.8834 54.5607 50.9319 55.1417 52.9192C53.139 53.4084 51.0294 53.8212 48.8433 54.1422C49.5923 52.9651 50.3414 51.7574 51.0446 50.5191C51.7479 49.2961 52.4052 48.0578 53.032 46.8348ZM37.5306 63.1465C36.1088 61.6789 34.6871 60.0432 33.2807 58.2545C34.6565 58.3157 36.063 58.3615 37.4847 58.3615C38.9217 58.3615 40.3435 58.331 41.7346 58.2545C40.3587 60.0432 38.937 61.6789 37.5306 63.1465ZM26.1567 54.1422C23.9859 53.8212 21.8916 53.4237 19.8889 52.9345C20.4545 50.9624 21.1578 48.9292 21.9527 46.896C22.5795 48.119 23.2369 49.342 23.9554 50.565C24.6739 51.788 25.4077 52.9804 26.1567 54.1422ZM37.4541 22.3291C38.8759 23.7967 40.2976 25.4325 41.704 27.2211C40.3282 27.16 38.9217 27.1141 37.5 27.1141C36.063 27.1141 34.6413 27.1447 33.2501 27.2211C34.626 25.4325 36.0477 23.7967 37.4541 22.3291ZM26.1415 31.3334C25.3924 32.5105 24.6433 33.7182 23.9401 34.9565C23.2369 36.1795 22.5795 37.4025 21.9527 38.6255C21.1272 36.577 20.424 34.5285 19.8431 32.5411C21.8457 32.0672 23.9554 31.6544 26.1415 31.3334ZM12.3064 50.4732C6.89462 48.1648 3.3938 45.1379 3.3938 42.7378C3.3938 40.3377 6.89462 37.2955 12.3064 35.0024C13.6211 34.4368 15.0581 33.9323 16.541 33.4584C17.4124 36.4547 18.5589 39.5733 19.9806 42.7684C18.5742 45.9482 17.4429 49.0515 16.5868 52.0326C15.0734 51.5586 13.6364 51.0389 12.3064 50.4732ZM20.531 72.3189C18.4519 71.1265 17.5499 66.5862 18.2532 60.7464C18.4213 59.3094 18.6965 57.7959 19.0328 56.2519C22.0292 56.9857 25.3007 57.5513 28.7403 57.9182C30.8041 60.7464 32.9444 63.3147 35.0999 65.5619C30.1162 70.194 25.4382 72.7317 22.2585 72.7317C21.5705 72.7164 20.9896 72.5788 20.531 72.3189ZM56.7927 60.6699C57.5112 66.5097 56.6245 71.0501 54.5607 72.2578C54.1021 72.533 53.5059 72.6553 52.8027 72.6553C49.6382 72.6553 44.945 70.1328 39.9613 65.5313C42.1015 63.2841 44.2417 60.7311 46.275 57.9029C49.7299 57.536 53.0014 56.9704 55.9978 56.2213C56.3494 57.7653 56.6245 59.2482 56.7927 60.6699ZM62.6784 50.4732C61.3636 51.0389 59.9266 51.5434 58.4437 52.0173C57.5724 49.0209 56.4258 45.9023 55.0041 42.7072C56.4105 39.5275 57.5418 36.4241 58.3979 33.4431C59.9113 33.917 61.3483 34.4368 62.6936 35.0024C68.1054 37.3108 71.6062 40.3377 71.6062 42.7378C71.5909 45.1379 68.0901 48.1801 62.6784 50.4732Z" fill="#61DAFB"/>
<path d="M37.4848 49.7242C41.3433 49.7242 44.4712 46.5963 44.4712 42.7378C44.4712 38.8794 41.3433 35.7515 37.4848 35.7515C33.6263 35.7515 30.4984 38.8794 30.4984 42.7378C30.4984 46.5963 33.6263 49.7242 37.4848 49.7242Z" fill="#61DAFB"/>
</svg>
